<svg width="1880" height="596" viewBox="0 0 1880 596" fill="none" xmlns="http://www.w3.org/2000/svg">
<path d="M1798.81 584.814C1762.55 584.814 1734.01 574.414 1713.21 553.614C1692.95 532.814 1682.81 504.547 1682.81 468.814V74.4141H1702.81V460.814C1702.81 494.947 1711.08 521.081 1727.61 539.214C1744.68 557.347 1770.28 566.414 1804.41 566.414H1876.41V584.814H1798.81ZM1610.81 195.214V176.814H1879.61V195.214H1610.81Z" fill="#6962AD"/>
<path d="M1506.56 584.814V176.814H1526.56V584.814H1506.56ZM1516.96 87.2142C1511.63 87.2142 1506.83 85.0809 1502.56 80.8142C1498.3 76.5476 1496.16 71.7476 1496.16 66.4143C1496.16 60.5476 1498.3 55.7476 1502.56 52.0143C1506.83 47.7476 1511.63 45.6143 1516.96 45.6143C1522.83 45.6143 1527.63 47.7476 1531.36 52.0143C1535.63 55.7476 1537.76 60.5476 1537.76 66.4143C1537.76 71.7476 1535.63 76.5476 1531.36 80.8142C1527.63 85.0809 1522.83 87.2142 1516.96 87.2142Z" fill="#6962AD"/>
<path d="M1187.81 595.214C1154.75 595.214 1122.75 587.481 1091.81 572.014C1061.41 556.548 1036.35 533.348 1016.61 502.414C997.412 471.481 987.812 433.081 987.812 387.214V0.814453H1007.81V283.214H1010.21C1019.81 260.814 1033.68 241.081 1051.81 224.014C1069.95 206.414 1090.75 192.548 1114.21 182.414C1137.68 172.281 1162.48 167.214 1188.61 167.214C1223.28 167.214 1255.81 175.481 1286.21 192.014C1317.15 208.548 1342.21 232.814 1361.41 264.814C1380.61 296.281 1390.21 334.948 1390.21 380.814C1390.21 416.548 1384.35 448.014 1372.61 475.214C1361.41 501.881 1345.95 524.281 1326.21 542.414C1307.01 560.014 1285.41 573.348 1261.41 582.414C1237.41 590.948 1212.88 595.214 1187.81 595.214ZM1187.01 576.814C1217.41 576.814 1246.48 569.614 1274.21 555.214C1302.48 540.281 1325.41 518.414 1343.01 489.614C1361.15 460.281 1370.21 424.014 1370.21 380.814C1370.21 339.748 1361.41 304.814 1343.81 276.014C1326.21 246.681 1303.55 224.281 1275.81 208.814C1248.61 193.348 1219.81 185.614 1189.41 185.614C1159.01 185.614 1129.95 193.081 1102.21 208.014C1074.48 222.414 1051.81 244.281 1034.21 273.614C1016.61 302.414 1007.81 338.681 1007.81 382.414C1007.81 425.614 1016.35 461.614 1033.41 490.414C1051.01 519.214 1073.41 540.814 1100.61 555.214C1128.35 569.614 1157.15 576.814 1187.01 576.814Z" fill="#6962AD"/>
<path d="M750.312 584.814V292.814C750.312 256.548 760.446 228.281 780.713 208.014C801.513 187.214 830.046 176.814 866.312 176.814H907.912V195.214H871.913C837.779 195.214 812.179 204.281 795.112 222.414C778.579 240.548 770.312 266.681 770.312 300.814V584.814H750.312Z" fill="#6962AD"/>
<path d="M347.2 595.214C304 595.214 264.533 587.747 228.8 572.814C193.6 557.881 163.467 537.081 138.4 510.414C113.333 483.747 93.8667 452.814 80 417.614C66.6667 382.414 60 344.814 60 304.814C60 264.814 66.6667 227.214 80 192.014C93.8667 156.814 113.333 125.881 138.4 99.2141C163.467 72.5474 193.6 51.7474 228.8 36.8141C264.533 21.8807 304 14.4141 347.2 14.4141C390.933 14.4141 430.4 21.8807 465.6 36.8141C500.8 51.7474 530.933 72.5474 556 99.2141C581.067 125.881 600.267 156.814 613.6 192.014C627.467 227.214 634.4 264.814 634.4 304.814C634.4 344.814 627.467 382.414 613.6 417.614C600.267 452.814 581.067 483.747 556 510.414C530.933 537.081 500.8 557.881 465.6 572.814C430.4 587.747 390.933 595.214 347.2 595.214ZM347.2 576.814C385.6 576.814 421.067 570.147 453.6 556.814C486.133 542.947 514.4 523.747 538.4 499.214C562.4 474.681 581.067 445.881 594.4 412.814C607.733 379.747 614.4 343.747 614.4 304.814C614.4 265.881 607.733 229.881 594.4 196.814C581.067 163.747 562.4 134.947 538.4 110.414C514.4 85.8807 486.133 66.9474 453.6 53.6141C421.067 39.7474 385.6 32.8141 347.2 32.8141C308.8 32.8141 273.333 39.7474 240.8 53.6141C208.267 66.9474 180 85.8807 156 110.414C132 134.947 113.333 163.747 100 196.814C86.6667 229.881 80 265.881 80 304.814C80 343.747 86.6667 379.747 100 412.814C113.333 445.881 132 474.681 156 499.214C180 523.747 208.267 542.947 240.8 556.814C273.333 570.147 308.8 576.814 347.2 576.814Z" fill="#6962AD"/>
<path d="M451.493 113.086C460.643 118.35 470.554 120.925 481.228 120.811C492.02 120.582 501.99 117.835 511.14 112.571C520.406 107.307 527.737 100.211 533.133 91.2847C538.529 82.3582 541.227 72.5734 541.227 61.9302C541.227 50.6004 538.529 40.2434 533.133 30.8591C527.737 21.4749 520.406 14.0933 511.14 8.71455C501.99 3.33576 492.02 0.703582 481.228 0.81803C470.202 0.81803 460.056 3.56464 450.79 9.05787C441.523 14.4367 434.251 21.7037 428.972 30.8591C423.694 40.0145 421.113 49.971 421.23 60.7286C421.465 71.9439 424.28 82.1865 429.676 91.4564C435.189 100.612 442.461 107.822 451.493 113.086Z" fill="#96E9C6"/>
<path d="M38.3726 370.154C49.8091 376.734 62.1988 379.953 75.5415 379.81C89.0308 379.524 101.494 376.091 112.93 369.51C124.513 362.93 133.677 354.06 140.422 342.902C147.167 331.744 150.539 319.513 150.539 306.209C150.539 292.047 147.167 279.101 140.422 267.37C133.677 255.64 124.513 246.413 112.93 239.69C101.494 232.966 89.0308 229.676 75.5415 229.819C61.7589 229.819 49.076 233.252 37.4928 240.119C25.9096 246.842 16.819 255.926 10.221 267.37C3.62292 278.815 0.397221 291.26 0.543844 304.707C0.837089 318.726 4.35604 331.53 11.1007 343.117C17.992 354.561 27.0826 363.573 38.3726 370.154Z" fill="#96E9C6"/>
<path d="M451.154 590.062C457.254 593.571 463.862 595.288 470.978 595.211C478.172 595.059 484.819 593.228 490.919 589.718C497.096 586.209 501.984 581.478 505.581 575.527C509.178 569.576 510.977 563.053 510.977 555.958C510.977 548.405 509.178 541.5 505.581 535.244C501.984 528.987 497.096 524.066 490.919 520.481C484.819 516.895 478.172 515.14 470.978 515.216C463.627 515.216 456.863 517.047 450.685 520.709C444.508 524.295 439.659 529.14 436.14 535.244C432.621 541.347 430.901 547.985 430.979 555.157C431.136 562.634 433.012 569.462 436.609 575.642C440.285 581.745 445.133 586.552 451.154 590.062Z" fill="#96E9C6"/>
</svg>
